<svg height="512" viewBox="0 0 58 58" width="512" xmlns="http://www.w3.org/2000/svg"><g id="Page-1" fill="none" fill-rule="evenodd"><g id="017---Recycling-Box" fill-rule="nonzero"><path id="Shape" d="m26.06 13-6.31 8h-10.75003191l.00003191-3.69c-.00861386-3.316187 1.7271058-6.3926268 4.57-8.1.8866142-.54450973 1.4277844-1.5095334 1.43-2.55v-1.66h6v1.62c.0022746 1.06123767.5650589 2.04230745 1.48 2.58 1.5403429.8879542 2.7853772 2.209499 3.58 3.8z" fill="#805333"/><path id="Shape" d="m22 2v2c0 .55228475-.4477153 1-1 1h-6c-.5522847 0-1-.44771525-1-1v-2c0-1.1045695.8954305-2 2-2h4c1.1045695 0 2 .8954305 2 2z" fill="#e64c3c"/><path id="Shape" d="m13 18.31c-.5522847 0-1-.4477153-1-1 .0008781-2.2519201 1.1708194-4.3419122 3.09-5.52.3099891-.1970594.703062-.2083077 1.0238128-.0292979.3207509.1790099.5175425.5194594.5125711.886748s-.2109055.702287-.5363839.8725499c-1.3040407.8179975-2.0940737 2.2506412-2.09 3.79 0 .5522847-.4477153 1-1 1z" fill="#fff"/><path id="Shape" d="m50.46 19.73.23 1.27h-30.94l6.31-8 .46-.58c1.2407867-1.5653874 3.0866157-2.53190417 5.08-2.66l5.74-.34c1.9478161-.11285245 3.7601482-1.03351715 5-2.54l9.43 7.42c-1.1711966 1.5498203-1.645696 3.5166384-1.31 5.43z" fill="#3b97d3"/><path id="Shape" d="m56.26 10.19-.61.78-1.24 1.57-1.24 1.58c-.3434539.4289082-.9686301.5003569-1.4.16l-9.43-7.42c-.2104929-.16375611-.3468544-.40480799-.3787773-.66958004-.0319229-.26477206.0432379-.53132663.2087773-.74041996l1.24-1.57 1.24-1.57.62-.78c1.3655851-1.73160411 3.8750299-2.03130607 5.61-.67l4.72 3.71c.8330651.65753962 1.3706687 1.61919367 1.4944545 2.67324911.1237859 1.05405544-.1763943 2.11409691-.8344545 2.94675089z" fill="#8697cb"/><path id="Shape" d="m47.17 5.57c-.3404661.43210332-.9660137.50806268-1.4.17l-2.36-1.86 1.24-1.57 2.35 1.86c.4321033.3404661.5080627.96601375.17 1.4z" fill="#556080"/><path id="Shape" d="m55.65 11-1.24 1.57-5.5-4.33c-.4321033-.3404661-.5080627-.96601375-.17-1.4.1637561-.21049286.404808-.34685442.66958-.37877729.2647721-.03192288.5313267.04323791.74042.20877729z" fill="#556080"/><path id="Shape" d="m22.29 25.44c-.2243737.0015399-.4427458-.0724249-.62-.21-.2104929-.1637561-.3468544-.404808-.3787773-.66958-.0319229-.2647721.0432379-.5313267.2087773-.74042l7.5-9.57c.3396551-.4363049.968695-.5146551 1.405-.175.4363049.3396551.5146551.968695.175 1.405l-7.54 9.58c-.1820198.2307155-.4563088.3696886-.75.38z" fill="#fff"/><path id="Shape" d="m55 28-4.3 25.82c-.4014485 2.4147312-2.4921288 4.1837684-4.94 4.18h-33.52c-2.44787119.0037684-4.53855155-1.7652688-4.94-4.18l-4.3-25.82 26-2z" fill="#24ae5f"/><rect id="Rectangle-path" fill="#4fba6f" height="7" rx="2" width="58" y="21"/><g fill="#fff"><path id="Shape" d="m32.46 40.68c-.3586848.001424-.690659-.1893658-.87-.5l-1.72-3c-.1775612-.3133105-.509873-.5069483-.87-.5069483s-.6924388.1936378-.87.5069483l-1.72 3c-.1786328.3108211-.5095174.5027322-.8680127.5034422-.3584954.00071-.6901375-.189889-.87-.5000001-.1798626-.310111-.1806201-.692621-.0019873-1.0034421l1.73-3c.5353928-.9300833 1.526827-1.503337 2.6-1.503337s2.0646072.5732537 2.6 1.503337l1.73 3c.1789919.3100165.1786145.6920638-.0009896 1.001726-.1796041.3096623-.5110351.4996985-.8690104.498274z"/><path id="Shape" d="m35.54 52h-3.08c-.5522847 0-1-.4477153-1-1s.4477153-1 1-1h3.08c.3561886-.0021425.6843497-.1935877.8615155-.5025978.1771657-.3090101.1765885-.6889319-.0015155-.9974022l-1.54-2.66c-.2761424-.4804877-.1104877-1.0938576.37-1.37s1.0938576-.1104877 1.37.37l1.53 2.66c.5351827.9269546.5359541 2.0688327.0020245 2.9965097-.5339296.9276769-1.5216708 1.5006111-2.5920245 1.5034903z"/><path id="Shape" d="m25.54 52h-3.08c-1.0703537-.0028792-2.0580949-.5758134-2.5920245-1.5034903-.5339296-.927677-.5331582-2.0695551.0020245-2.9965097l1.53-2.66c.1786328-.3108211.5095174-.5027321.8680127-.5034421s.6901375.1898889.87.5c.1798626.3101111.1806201.692621.0019873 1.0034421l-1.54 2.66c-.178104.3084703-.1786812.6883921-.0015155.9974022.1771658.3090101.5053269.5004553.8615155.5025978h3.08c.5522847 0 1 .4477153 1 1s-.4477153 1-1 1z"/><path id="Shape" d="m32.46 40.68c-.3586848.001424-.690659-.1893658-.87-.5l-1.72-3c-.1775612-.3133105-.509873-.5069483-.87-.5069483s-.6924388.1936378-.87.5069483l-1.72 3c-.1786328.3108211-.5095174.5027322-.8680127.5034422-.3584954.00071-.6901375-.189889-.87-.5000001-.1798626-.310111-.1806201-.692621-.0019873-1.0034421l1.73-3c.5353928-.9300833 1.526827-1.503337 2.6-1.503337s2.0646072.5732537 2.6 1.503337l1.73 3c.1789919.3100165.1786145.6920638-.0009896 1.001726-.1796041.3096623-.5110351.4996985-.8690104.498274z"/><path id="Shape" d="m35.54 52h-3.08c-.5522847 0-1-.4477153-1-1s.4477153-1 1-1h3.08c.3561886-.0021425.6843497-.1935877.8615155-.5025978.1771657-.3090101.1765885-.6889319-.0015155-.9974022l-1.54-2.66c-.2761424-.4804877-.1104877-1.0938576.37-1.37s1.0938576-.1104877 1.37.37l1.53 2.66c.5351827.9269546.5359541 2.0688327.0020245 2.9965097-.5339296.9276769-1.5216708 1.5006111-2.5920245 1.5034903z"/><path id="Shape" d="m25.54 52h-3.08c-1.0703537-.0028792-2.0580949-.5758134-2.5920245-1.5034903-.5339296-.927677-.5331582-2.0695551.0020245-2.9965097l1.53-2.66c.1786328-.3108211.5095174-.5027321.8680127-.5034421s.6901375.1898889.87.5c.1798626.3101111.1806201.692621.0019873 1.0034421l-1.54 2.66c-.178104.3084703-.1786812.6883921-.0015155.9974022.1771658.3090101.5053269.5004553.8615155.5025978h3.08c.5522847 0 1 .4477153 1 1s-.4477153 1-1 1z"/></g></g></g></svg>