<svg height="429pt" viewBox="0 -22 429.967 429" width="429pt" xmlns="http://www.w3.org/2000/svg"><path d="m404.222656 311.789062c11.027344.679688 19.417969 10.175782 18.738282 21.203126-.652344 10.558593-9.402344 18.785156-19.980469 18.78125h-111.46875c-11.050781-.003907-20.007813-8.964844-20.007813-20.015626 0-10.570312 8.226563-19.316406 18.777344-19.96875.410156-.03125.820312-.039062 1.230469-.039062h111.46875c.421875 0 .832031.007812 1.242187.039062zm0 0" fill="#6fe3ff"/><path d="m404.222656 311.75v.039062c-.410156-.03125-.820312-.039062-1.242187-.039062h-111.46875c-.410157 0-.820313.007812-1.230469.039062v-34.621093c0-31.945313 25.503906-57.6875 56.964844-57.6875 15.148437-.007813 29.667968 6.066406 40.292968 16.863281 10.734376 10.871094 16.730469 25.546875 16.683594 40.824219zm0 0" fill="#6fe3ff"/><path d="m321.265625 351.773438h51.964844c.007812 14.347656-11.621094 25.988281-25.96875 25.996093-14.347657.007813-25.988281-11.617187-25.996094-25.96875 0-.007812 0-.019531 0-.027343zm0 0" fill="#6fe3ff"/><path d="m363.9375 202.082031c-.007812 9.203125-7.476562 16.65625-16.683594 16.648438-9.203125-.007813-16.65625-7.480469-16.648437-16.683594.007812-9.101563 7.320312-16.515625 16.421875-16.648437.074218-.007813.144531-.011719.21875-.007813 9.207031.03125 16.660156 7.484375 16.691406 16.691406zm0 0" fill="#6fe3ff"/><path d="m347.246094 218.761719v.71875c-31.460938 0-56.964844 25.742187-56.964844 57.6875v28.949219h-243.277344c-22.09375 0-40.003906-17.910157-40.003906-40v-177.285157h340.027344v96.566407c-9.214844.140624-16.566406 7.722656-16.425782 16.9375.140626 9.097656 7.542969 16.40625 16.644532 16.425781zm0 0" fill="#e48e66"/><path d="m347.027344 47.488281v41.34375h-340.027344v-41.34375c0-22.09375 17.910156-40.003906 40.003906-40.003906h260.019532c22.09375 0 40.003906 17.910156 40.003906 40.003906zm-177.632813 1.21875c.023438-6.9375-5.582031-12.585937-12.523437-12.609375-6.9375-.023437-12.585938 5.582032-12.609375 12.519532-.027344 6.941406 5.582031 12.585937 12.519531 12.613281h.011719c6.9375.019531 12.574219-5.585938 12.601562-12.523438zm-56.445312-.179687c.019531-6.9375-5.59375-12.582032-12.53125-12.597656-6.941407-.019532-12.582031 5.589843-12.601563 12.527343-.019531 6.941407 5.589844 12.582031 12.53125 12.601563 6.941406.019531 12.582032-5.589844 12.601563-12.527344 0 0 0 0 0-.003906zm-56.445313-.179688c.019532-6.9375-5.589844-12.582031-12.53125-12.601562-6.9375-.015625-12.582031 5.59375-12.601562 12.53125-.019532 6.9375 5.585937 12.578125 12.523437 12.601562 6.9375.027344 12.585938-5.578125 12.609375-12.519531 0-.003906 0-.007813 0-.011719zm0 0" fill="#f8ec7d"/><path d="m156.871094 36.097656c6.941406.023438 12.546875 5.671875 12.523437 12.609375-.027343 6.941407-5.671875 12.546875-12.613281 12.523438-6.933594-.027344-12.539062-5.664063-12.519531-12.601563.019531-6.941406 5.660156-12.550781 12.597656-12.53125zm0 0" fill="#e48e66"/><path d="m100.417969 35.929688c6.9375.015624 12.550781 5.660156 12.53125 12.597656-.019531 6.941406-5.660157 12.550781-12.601563 12.53125-6.941406-.019532-12.550781-5.660156-12.53125-12.601563 0 0 0-.003906 0-.007812.023438-6.9375 5.664063-12.542969 12.601563-12.519531zm0 0" fill="#e48e66"/><path d="m43.972656 35.746094c6.941406.019531 12.550782 5.664062 12.53125 12.601562-.019531 6.941406-5.660156 12.550782-12.601562 12.53125-6.9375-.019531-12.550782-5.660156-12.53125-12.601562 0 0 0-.003906 0-.007813.023437-6.9375 5.664062-12.542969 12.601562-12.523437zm0 0" fill="#e48e66"/><g fill="#63316d"><path d="m347.269531 225.761719c-.007812 0-.03125 0-.039062 0-6.324219-.011719-12.265625-2.488281-16.730469-6.972657-4.464844-4.480468-6.914062-10.4375-6.898438-16.761718.027344-12.753906 10.363282-23.304688 23.085938-23.625.207031-.011719.414062-.015625.617188-.011719 6.304687.011719 12.230468 2.46875 16.691406 6.925781 4.476562 4.472656 6.945312 10.417969 6.945312 16.746094.007813 13.0625-10.613281 23.691406-23.671875 23.699219zm-.011719-14h.003907c2.585937 0 5.019531-1.011719 6.847656-2.839844 1.828125-1.832031 2.832031-4.265625 2.832031-6.851563-.003906-5.296874-4.28125-9.609374-9.5625-9.679687-.082031.003906-.164062.007813-.246094.007813-5.246093.082031-9.519531 4.414062-9.53125 9.660156-.007812 2.585937.996094 5.019531 2.820313 6.855468 1.824219 1.828126 4.25 2.839844 6.835937 2.847657zm-.199218-19.375h.007812c-.003906 0-.003906 0-.007812 0zm0 0"/><path d="m404.222656 318.75c-3.867187 0-7.003906-3.132812-7.003906-7v-34.582031c.042969-13.542969-5.164062-26.285157-14.660156-35.90625-9.25-9.394531-22.105469-14.777344-35.277344-14.777344-.007812 0-.019531 0-.03125 0-27.554688 0-49.96875 22.734375-49.96875 50.683594v34.582031c0 3.867188-3.132812 7-7 7s-7-3.132812-7-7v-34.582031c0-35.667969 28.695312-64.683594 63.964844-64.683594h.039062c16.898438 0 33.386719 6.902344 45.242188 18.949219 12.105468 12.261718 18.746094 28.515625 18.695312 45.753906v34.5625c0 3.867188-3.132812 7-7 7zm0 0"/><path d="m402.988281 358.773438c-.003906 0-.007812 0-.011719 0h-111.464843c-7.214844 0-13.996094-2.8125-19.101563-7.914063-5.101562-5.101563-7.90625-11.886719-7.90625-19.101563 0-14.226562 11.113282-26.058593 25.308594-26.953124.566406-.039063 1.132812-.054688 1.699219-.054688h111.46875c.59375 0 1.175781.015625 1.757812.058594 14.78125.910156 26.128907 13.75 25.210938 28.617187-.878907 14.214844-12.71875 25.347657-26.960938 25.347657zm-111.476562-40.023438c-.238281 0-.476563.003906-.714844.019531-.027344.003907-.054687.003907-.085937.007813-6.84375.421875-12.207032 6.125-12.207032 12.980468 0 3.476563 1.355469 6.742188 3.8125 9.199219 2.457032 2.460938 5.722656 3.8125 9.195313 3.8125h111.46875.003906c6.863281.003907 12.566406-5.359375 12.988281-12.207031.441406-7.160156-5.023437-13.34375-12.183594-13.785156-.324218-.023438-.5625-.027344-.808593-.027344zm-1.230469-6.960938h.011719zm0 0"/><path d="m347.246094 384.769531c-18.179688 0-32.972656-14.78125-32.980469-32.964843l14-.03125c.007813 10.488281 8.519531 18.996093 18.980469 18.996093h.011718c10.464844-.007812 18.976563-8.527343 18.972657-18.992187-.003907-3.867188 3.128906-7.003906 6.996093-7.003906h.003907c3.863281 0 6.996093 3.128906 7 6.996093.007812 18.183594-14.777344 32.988281-32.964844 33-.007813 0-.011719 0-.019531 0zm0 0"/><path d="m290.28125 313.121094h-243.277344c-25.917968 0-47.003906-21.085938-47.003906-47.003906v-218.628907c0-25.917969 21.085938-47.003906 47.003906-47.003906h260.019532c25.917968 0 47.003906 21.085937 47.003906 47.003906v137.871094c0 3.867187-3.132813 7-7 7-3.867188 0-7-3.132813-7-7v-137.871094c0-18.195312-14.804688-33-33.003906-33h-260.019532c-18.199218 0-33.003906 14.804688-33.003906 33v218.628907c0 18.195312 14.804688 33 33.003906 33h243.277344c3.867188 0 7 3.136718 7 7 0 3.867187-3.132812 7.003906-7 7.003906zm0 0"/><path d="m347.027344 95.832031h-340.027344c-3.867188 0-7-3.132812-7-7 0-3.867187 3.132812-7 7-7h340.027344c3.867187 0 7 3.132813 7 7 0 3.867188-3.132813 7-7 7zm0 0"/><path d="m100.382812 68.058594c-.019531 0-.035156 0-.054687 0-5.226563-.011719-10.132813-2.0625-13.820313-5.769532-3.683593-3.703124-5.707031-8.625-5.691406-13.851562.03125-10.769531 8.800782-19.511719 19.566406-19.511719h.054688c10.785156.035157 19.535156 8.835938 19.511719 19.621094-.015625 5.226563-2.0625 10.136719-5.769531 13.820313-3.691407 3.671874-8.589844 5.691406-13.796876 5.691406zm-.003906-25.128906c-3.058594 0-5.550781 2.484374-5.5625 5.546874-.003906 1.488282.570313 2.886719 1.621094 3.941407 1.046875 1.054687 2.441406 1.636719 3.929688 1.640625h.015624c1.480469 0 2.875-.574219 3.925782-1.617188 1.050781-1.050781 1.632812-2.441406 1.640625-3.929687.007812-3.066407-2.484375-5.574219-5.554688-5.582031-.003906 0-.011719 0-.015625 0zm12.570313 5.597656h.007812zm0 0"/><path d="m43.9375 67.878906c-.015625 0-.035156 0-.054688 0-10.789062-.027344-19.539062-8.832031-19.511718-19.621094.03125-10.769531 8.804687-19.511718 19.566406-19.511718h.054688c10.785156.039062 19.535156 8.835937 19.511718 19.617187v.003907c-.027344 10.773437-8.800781 19.511718-19.566406 19.511718zm-.003906-25.128906c-3.054688 0-5.550782 2.484375-5.5625 5.550781-.007813 3.066407 2.484375 5.570313 5.550781 5.578125h.015625c3.0625 0 5.558594-2.484375 5.566406-5.546875.003906-3.066406-2.484375-5.570312-5.554687-5.582031-.003907 0-.011719 0-.015625 0zm12.570312 5.597656h.011719zm0 0"/><path d="m156.828125 68.230469c-.023437 0-.046875 0-.070313 0-5.226562-.019531-10.132812-2.070313-13.816406-5.78125-3.683594-3.707031-5.699218-8.628907-5.679687-13.855469s2.070312-10.132812 5.777343-13.816406c3.691407-3.664063 8.585938-5.679688 13.785157-5.679688h.074219c5.21875.015625 10.125 2.0625 13.808593 5.769532 3.679688 3.703124 5.703125 8.621093 5.6875 13.84375v.023437c-.039062 10.765625-8.8125 19.496094-19.566406 19.496094zm.003906-25.132813c-1.484375 0-2.875.574219-3.925781 1.617188-1.054688 1.046875-1.640625 2.441406-1.644531 3.929687-.011719 3.070313 2.476562 5.574219 5.546875 5.585938h.019531c3.054687 0 5.546875-2.476563 5.5625-5.535157v-.003906c.003906-1.503906-.566406-2.902344-1.613281-3.953125s-2.441406-1.632812-3.925782-1.640625c-.007812 0-.011718 0-.019531 0zm12.5625 5.609375h.007813zm0 0"/></g></svg>